<svg viewBox="0 0 216 35.5" xmlns="http://www.w3.org/2000/svg"><g fill="#fff"><path d="m0 23.08h7.04v-7.04h-7.04z"/><path d="m16.95 1.66c5.73.1 9.15 3.92 9.65 10.91l1.86-.3-.35-12.27h-27.76l-.35 12.27 1.86.3c.5-7 3.87-10.81 9.66-10.91v25.7c0 4.68-.81 5.43-5.83 5.48v2h17.1v-2c-5 0-5.83-.8-5.83-5.48v-25.7z"/><path d="m21.36 23.08h7.04v-7.04h-7.04z"/><path d="m42.48 23.08h7.04v-7.04h-7.04z"/><path d="m63.59 23.08h7.04v-7.04h-7.04z"/><path d="m90 34.8 8.9-30.47v23.93c0 2.62-.15 3.57-.75 4.17a4.12 4.12 0 0 1 -2.67.75h-.45v1.62h12.57v-1.61h-.6a4.12 4.12 0 0 1 -2.67-.75c-.6-.6-.76-1.56-.76-4.17v-20.47c0-2.62.15-3.57.76-4.17a4.22 4.22 0 0 1 2.67-.76h.65v-1.61h-9.77l-7.34 24.69-7.19-24.69h-9.7v1.61h.9c2.66 0 3.17.61 3.17 4v19.43c0 3.12-.15 4.32-.6 5.28a3.08 3.08 0 0 1 -2.67 1.61h-.8v1.61h10.35v-1.61h-.65a3.3 3.3 0 0 1 -3-1.56c-.6-1-.75-1.91-.75-5.33v-22l8.88 30.5z"/><g fill-rule="evenodd"><path d="m118.44 11c-6.23 0-10.31 4.83-10.31 12.32 0 7.29 4.08 12.22 10.16 12.22s10.21-4.93 10.21-12.27-4.08-12.27-10.06-12.27zm-.2 1.61a4.64 4.64 0 0 1 4.22 3c.81 1.76 1.16 4.17 1.16 7.64 0 7.14-1.76 10.66-5.33 10.66s-5.29-3.53-5.29-10.78a18.59 18.59 0 0 1 1.16-7.54 4.71 4.71 0 0 1 4.07-3z"/><path d="m136.84.91-7.14.35v1.56h.35c2.11 0 2.56.7 2.56 4v23c0 2.92-.1 3.72-.5 5h1.66c1.25-2 1.56-2.36 2.06-2.36a1.29 1.29 0 0 1 .86.4c2.46 2 3.52 2.47 5.78 2.47 5.43 0 9.35-5.23 9.35-12.52 0-6.94-3.62-11.62-9-11.62a6 6 0 0 0 -5.93 3.77v-14.05zm5.23 12c3.22 0 4.88 3.42 4.88 10.06 0 6.94-1.71 10.56-5 10.56-3.62 0-5.53-3.67-5.53-10.41 0-3.32.45-5.68 1.51-7.44a5 5 0 0 1 4.12-2.77z"/><path d="m161.13 11.31-7.34.35v1.56h.55c2.12 0 2.57.7 2.57 4v11.95c0 3.32-.45 4.08-2.57 4.08h-.81v1.55h11v-1.56h-.8c-2.11 0-2.57-.71-2.57-4.08v-17.85zm-2.41-10.31a2.77 2.77 0 1 0 0 5.53 2.73 2.73 0 0 0 2.77-2.77 2.75 2.75 0 0 0 -2.77-2.76z"/></g><path d="m173.85.91-7.34.35v1.56h.55c2.12 0 2.57.7 2.57 4v22.35c0 3.37-.45 4.08-2.57 4.08h-.81v1.55h11v-1.56h-.81c-2.11 0-2.56-.71-2.56-4.08v-28.25z"/><path d="m197.23 23.08c-.23-7.44-3.87-12.08-9.36-12.08-5.28 0-9.1 5.08-9.1 12.12 0 7.59 3.77 12.42 9.6 12.42 3.77 0 6.39-2 8.55-6.34l-1.51-.81c-1.76 3.72-3.52 5.18-6.23 5.18-4 0-5.68-3.12-5.73-10.46zm-13.73-1.76c0-5.28 1.81-8.6 4.63-8.6s4.47 3.22 4.42 8.6z" fill-rule="evenodd"/><path d="m211.95 14a2.1 2.1 0 0 1 0-3 2.1 2.1 0 0 1 3.59 1.48 2.1 2.1 0 0 1 -3.59 1.52zm-.33-3.31a2.57 2.57 0 0 0 0 3.63 2.57 2.57 0 0 0 4.38-1.86 2.46 2.46 0 0 0 -.75-1.81 2.58 2.58 0 0 0 -3.63 0zm2.26 2a.75.75 0 0 0 .53-.73.72.72 0 0 0 -.28-.59 1.13 1.13 0 0 0 -.72-.22h-.87v2.78h.54v-1.1h.32l.73 1.1h.61zm-.8-1.09h.32c.33 0 .49.12.49.38s-.18.4-.52.4h-.29z"/><path d="m203.22 23.07h7.04v-7.05h-7.04z"/></g></svg>